  0
SECTION
  2
HEADER
  9
$ACADVER
  1
AC1009
  9
$EXTMIN
 10
0.0
 20
0.0
 30
0.0
  9
$EXTMAX
 10
1000.0
 20
1000.0
 30
0.0
  9
$FILLMODE
 70
 0
  9
$SPLFRAME
 70
 1
  0
ENDSEC
  0
SECTION
  2
TABLES
  0
TABLE
  2
LAYER
 70
1
  0
LAYER
  2
0
 70
     0
 62
     7
  6
CONTINUOUS
  0
ENDTAB
  0
ENDSEC
  0
SECTION
  2
ENTITIES
  0
LINE
  8
0
 62
     1
 10
0.717122
 20
7.56158
 30
0.0
 11
3.32433
 21
7.56683
 31
0.0
  0
LINE
  8
0
 62
     1
 10
3.32433
 20
7.56683
 30
0.0
 11
3.47076
 21
7.55653
 31
0.0
  0
LINE
  8
0
 62
     1
 10
3.47076
 20
7.55653
 30
0.0
 11
3.60769
 21
7.53017
 31
0.0
  0
LINE
  8
0
 62
     1
 10
3.60769
 20
7.53017
 30
0.0
 11
3.73275
 21
7.48394
 31
0.0
  0
LINE
  8
0
 62
     1
 10
3.73275
 20
7.48394
 30
0.0
 11
3.84369
 21
7.41385
 31
0.0
  0
LINE
  8
0
 62
     1
 10
3.84369
 20
7.41385
 30
0.0
 11
3.9381
 21
7.31614
 31
0.0
  0
LINE
  8
0
 62
     1
 10
3.9381
 20
7.31614
 30
0.0
 11
4.01378
 21
7.1869
 31
0.0
  0
LINE
  8
0
 62
     1
 10
4.01378
 20
7.1869
 30
0.0
 11
4.06836
 21
7.02219
 31
0.0
  0
LINE
  8
0
 62
     1
 10
4.06836
 20
7.02219
 30
0.0
 11
4.09961
 21
6.81814
 31
0.0
  0
LINE
  8
0
 62
     1
 10
4.09961
 20
6.81814
 30
0.0
 11
4.07303
 21
0.722331
 31
0.0
  0
LINE
  8
0
 62
     1
 10
4.07303
 20
0.722331
 30
0.0
 11
4.04249
 21
0.528049
 31
0.0
  0
LINE
  8
0
 62
     1
 10
4.04249
 20
0.528049
 30
0.0
 11
3.98926
 21
0.372233
 31
0.0
  0
LINE
  8
0
 62
     1
 10
3.98926
 20
0.372233
 30
0.0
 11
3.91585
 21
0.250706
 31
0.0
  0
LINE
  8
0
 62
     1
 10
3.91585
 20
0.250706
 30
0.0
 11
3.82476
 21
0.159071
 31
0.0
  0
LINE
  8
0
 62
     1
 10
3.82476
 20
0.159071
 30
0.0
 11
3.71858
 21
0.0930989
 31
0.0
  0
LINE
  8
0
 62
     1
 10
3.71858
 20
0.0930989
 30
0.0
 11
3.59988
 21
0.0483399
 31
0.0
  0
LINE
  8
0
 62
     1
 10
3.59988
 20
0.0483399
 30
0.0
 11
3.47114
 21
0.0206164
 31
0.0
  0
LINE
  8
0
 62
     1
 10
3.47114
 20
0.0206164
 30
0.0
 11
3.33496
 21
0.0054796
 31
0.0
  0
LINE
  8
0
 62
     1
 10
3.33496
 20
0.0054796
 30
0.0
 11
0.844564
 21
0.0107964
 31
0.0
  0
LINE
  8
0
 62
     1
 10
0.844564
 20
0.0107964
 30
0.0
 11
0.689996
 21
0.0217557
 31
0.0
  0
LINE
  8
0
 62
     1
 10
0.689996
 20
0.0217557
 30
0.0
 11
0.542697
 21
0.0450304
 31
0.0
  0
LINE
  8
0
 62
     1
 10
0.542697
 20
0.0450304
 30
0.0
 11
0.406196
 21
0.0866428
 31
0.0
  0
LINE
  8
0
 62
     1
 10
0.406196
 20
0.0866428
 30
0.0
 11
0.2838
 21
0.152453
 31
0.0
  0
LINE
  8
0
 62
     1
 10
0.2838
 20
0.152453
 30
0.0
 11
0.17909
 21
0.248318
 31
0.0
  0
LINE
  8
0
 62
     1
 10
0.17909
 20
0.248318
 30
0.0
 11
0.0955404
 21
0.380154
 31
0.0
  0
LINE
  8
0
 62
     1
 10
0.0955404
 20
0.380154
 30
0.0
 11
0.0365126
 21
0.553874
 31
0.0
  0
LINE
  8
0
 62
     1
 10
0.0365126
 20
0.553874
 30
0.0
 11
0.00558811
 21
0.77539
 31
0.0
  0
LINE
  8
0
 62
     1
 10
0.00558811
 20
0.77539
 30
0.0
 11
0.0268554
 21
6.84472
 31
0.0
  0
LINE
  8
0
 62
     1
 10
0.0268554
 20
6.84472
 30
0.0
 11
0.0418836
 21
7.04665
 31
0.0
  0
LINE
  8
0
 62
     1
 10
0.0418836
 20
7.04665
 30
0.0
 11
0.0839844
 21
7.20594
 31
0.0
  0
LINE
  8
0
 62
     1
 10
0.0839844
 20
7.20594
 30
0.0
 11
0.149794
 21
7.32785
 31
0.0
  0
LINE
  8
0
 62
     1
 10
0.149794
 20
7.32785
 30
0.0
 11
0.236003
 21
7.41764
 31
0.0
  0
LINE
  8
0
 62
     1
 10
0.236003
 20
7.41764
 30
0.0
 11
0.339139
 21
7.48062
 31
0.0
  0
LINE
  8
0
 62
     1
 10
0.339139
 20
7.48062
 30
0.0
 11
0.455946
 21
7.52214
 31
0.0
  0
LINE
  8
0
 62
     1
 10
0.455946
 20
7.52214
 30
0.0
 11
0.583062
 21
7.54736
 31
0.0
  0
LINE
  8
0
 62
     1
 10
0.583062
 20
7.54736
 30
0.0
 11
0.717122
 21
7.56158
 31
0.0
  0
ENDSEC
  0
EOF
