  0
SECTION
  2
HEADER
  9
$ACADVER
  1
AC1009
  9
$EXTMIN
 10
0.0
 20
0.0
 30
0.0
  9
$EXTMAX
 10
1000.0
 20
1000.0
 30
0.0
  9
$FILLMODE
 70
 0
  9
$SPLFRAME
 70
 1
  0
ENDSEC
  0
SECTION
  2
TABLES
  0
TABLE
  2
LAYER
 70
1
  0
LAYER
  2
0
 70
     0
 62
     7
  6
CONTINUOUS
  0
ENDTAB
  0
ENDSEC
  0
SECTION
  2
ENTITIES
  0
LINE
  8
0
 62
     1
 10
0.0725369
 20
0.652453
 30
0.0
 11
0.0469835
 21
0.635363
 31
0.0
  0
LINE
  8
0
 62
     1
 10
0.0469835
 20
0.635363
 30
0.0
 11
0.0282661
 21
0.612847
 31
0.0
  0
LINE
  8
0
 62
     1
 10
0.0282661
 20
0.612847
 30
0.0
 11
0.0153537
 21
0.585667
 31
0.0
  0
LINE
  8
0
 62
     1
 10
0.0153537
 20
0.585667
 30
0.0
 11
0.00726997
 21
0.554579
 31
0.0
  0
LINE
  8
0
 62
     1
 10
0.00726997
 20
0.554579
 30
0.0
 11
0.00607639
 21
0.490506
 31
0.0
  0
LINE
  8
0
 62
     1
 10
0.00607639
 20
0.490506
 30
0.0
 11
0.0142686
 21
0.417046
 31
0.0
  0
LINE
  8
0
 62
     1
 10
0.0142686
 20
0.417046
 30
0.0
 11
0.0375433
 21
0.35536
 31
0.0
  0
LINE
  8
0
 62
     1
 10
0.0375433
 20
0.35536
 30
0.0
 11
0.0655382
 21
0.335503
 31
0.0
  0
LINE
  8
0
 62
     1
 10
0.0655382
 20
0.335503
 30
0.0
 11
0.098904
 21
0.334256
 31
0.0
  0
LINE
  8
0
 62
     1
 10
0.098904
 20
0.334256
 30
0.0
 11
0.123698
 21
0.354329
 31
0.0
  0
LINE
  8
0
 62
     1
 10
0.123698
 20
0.354329
 30
0.0
 11
0.141547
 21
0.391818
 31
0.0
  0
LINE
  8
0
 62
     1
 10
0.141547
 20
0.391818
 30
0.0
 11
0.154081
 21
0.442708
 31
0.0
  0
LINE
  8
0
 62
     1
 10
0.154081
 20
0.442708
 30
0.0
 11
0.151964
 21
0.500217
 31
0.0
  0
LINE
  8
0
 62
     1
 10
0.151964
 20
0.500217
 30
0.0
 11
0.146972
 21
0.546496
 31
0.0
  0
LINE
  8
0
 62
     1
 10
0.146972
 20
0.546496
 30
0.0
 11
0.139378
 21
0.582736
 31
0.0
  0
LINE
  8
0
 62
     1
 10
0.139378
 20
0.582736
 30
0.0
 11
0.129503
 21
0.610026
 31
0.0
  0
LINE
  8
0
 62
     1
 10
0.129503
 20
0.610026
 30
0.0
 11
0.117513
 21
0.629503
 31
0.0
  0
LINE
  8
0
 62
     1
 10
0.117513
 20
0.629503
 30
0.0
 11
0.103841
 21
0.642307
 31
0.0
  0
LINE
  8
0
 62
     1
 10
0.103841
 20
0.642307
 30
0.0
 11
0.0887586
 21
0.649576
 31
0.0
  0
LINE
  8
0
 62
     1
 10
0.0887586
 20
0.649576
 30
0.0
 11
0.0725369
 21
0.652453
 31
0.0
  0
LINE
  8
0
 62
     1
 10
0.347547
 20
0.547581
 30
0.0
 11
0.323839
 21
0.540419
 31
0.0
  0
LINE
  8
0
 62
     1
 10
0.323839
 20
0.540419
 30
0.0
 11
0.310331
 21
0.528917
 31
0.0
  0
LINE
  8
0
 62
     1
 10
0.310331
 20
0.528917
 30
0.0
 11
0.304958
 21
0.513889
 31
0.0
  0
LINE
  8
0
 62
     1
 10
0.304958
 20
0.513889
 30
0.0
 11
0.30561
 21
0.496311
 31
0.0
  0
LINE
  8
0
 62
     1
 10
0.30561
 20
0.496311
 30
0.0
 11
0.316678
 21
0.46951
 31
0.0
  0
LINE
  8
0
 62
     1
 10
0.316678
 20
0.46951
 30
0.0
 11
0.327746
 21
0.458387
 31
0.0
  0
LINE
  8
0
 62
     1
 10
0.327746
 20
0.458387
 30
0.0
 11
0.338813
 21
0.45459
 31
0.0
  0
LINE
  8
0
 62
     1
 10
0.338813
 20
0.45459
 30
0.0
 11
0.349881
 21
0.449707
 31
0.0
  0
LINE
  8
0
 62
     1
 10
0.349881
 20
0.449707
 30
0.0
 11
0.3801
 21
0.462565
 31
0.0
  0
LINE
  8
0
 62
     1
 10
0.3801
 20
0.462565
 30
0.0
 11
0.391818
 21
0.498643
 31
0.0
  0
LINE
  8
0
 62
     1
 10
0.391818
 20
0.498643
 30
0.0
 11
0.388835
 21
0.516331
 31
0.0
  0
LINE
  8
0
 62
     1
 10
0.388835
 20
0.516331
 30
0.0
 11
0.383192
 21
0.532172
 31
0.0
  0
LINE
  8
0
 62
     1
 10
0.383192
 20
0.532172
 30
0.0
 11
0.370714
 21
0.543457
 31
0.0
  0
LINE
  8
0
 62
     1
 10
0.370714
 20
0.543457
 30
0.0
 11
0.347547
 21
0.547581
 31
0.0
  0
LINE
  8
0
 62
     1
 10
0.168078
 20
0.109429
 30
0.0
 11
0.194282
 21
0.11556
 31
0.0
  0
LINE
  8
0
 62
     1
 10
0.194282
 20
0.11556
 30
0.0
 11
0.220486
 21
0.12028
 31
0.0
  0
LINE
  8
0
 62
     1
 10
0.220486
 20
0.12028
 30
0.0
 11
0.24669
 21
0.118435
 31
0.0
  0
LINE
  8
0
 62
     1
 10
0.24669
 20
0.118435
 30
0.0
 11
0.272949
 21
0.104763
 31
0.0
  0
LINE
  8
0
 62
     1
 10
0.272949
 20
0.104763
 30
0.0
 11
0.290419
 21
0.0628256
 31
0.0
  0
LINE
  8
0
 62
     1
 10
0.290419
 20
0.0628256
 30
0.0
 11
0.275282
 21
0.0162218
 31
0.0
  0
LINE
  8
0
 62
     1
 10
0.275282
 20
0.0162218
 30
0.0
 11
0.226346
 21
0.00580512
 31
0.0
  0
LINE
  8
0
 62
     1
 10
0.226346
 20
0.00580512
 30
0.0
 11
0.177408
 21
0.0185547
 31
0.0
  0
LINE
  8
0
 62
     1
 10
0.177408
 20
0.0185547
 30
0.0
 11
0.158692
 21
0.0394965
 31
0.0
  0
LINE
  8
0
 62
     1
 10
0.158692
 20
0.0394965
 30
0.0
 11
0.151747
 21
0.0616863
 31
0.0
  0
LINE
  8
0
 62
     1
 10
0.151747
 20
0.0616863
 30
0.0
 11
0.155328
 21
0.0850694
 31
0.0
  0
LINE
  8
0
 62
     1
 10
0.155328
 20
0.0850694
 30
0.0
 11
0.168078
 21
0.109429
 31
0.0
  0
ENDSEC
  0
EOF
